PathFileType	4	(X/Y/Z)	/Users/niels/Desktop/University/Third Semester/Perception and Action/Exam/Gymnastics Motion Tracking/Code for Gym Tracking/Analyzed Data/Webcam_Backflip/id7_1_trajectory_Sports2D/id7_1_trajectory_Sports2D_px_person00.trc
DataRate	CameraRate	NumFrames	NumMarkers	Units	OrigDataRate	OrigDataStartFrame	OrigNumFrames
29.81132075471698	29.81132075471698	11	22	m	29.81132075471698	99	159
Frame#	Time	Hip			RHip			RKnee			RAnkle			RBigToe			RSmallToe			RHeel			LHip			LKnee			LAnkle			LBigToe			LSmallToe			LHeel			Neck			Head			Nose			RShoulder			RElbow			RWrist			LShoulder			LElbow			LWrist		
		X1	Y1	Z1	X2	Y2	Z2	X3	Y3	Z3	X4	Y4	Z4	X5	Y5	Z5	X6	Y6	Z6	X7	Y7	Z7	X8	Y8	Z8	X9	Y9	Z9	X10	Y10	Z10	X11	Y11	Z11	X12	Y12	Z12	X13	Y13	Z13	X14	Y14	Z14	X15	Y15	Z15	X16	Y16	Z16	X17	Y17	Z17	X18	Y18	Z18	X19	Y19	Z19	X20	Y20	Z20	X21	Y21	Z21	X22	Y22	Z22
99	3.320886075949367	0.7594118466170172	-0.5830423081524977	0.0	0.732365539053545	-0.5856486671811337	0.0	0.7505326761897088	-0.6962894649730273	0.0	0.7517045938747718	-0.8053744816126889	0.0	0.7590333974668152	-0.821546581077598	0.0	0.7418867783503847	-0.8235882051785726	0.0	0.751244528160017	-0.8181019098674637	0.0	0.7867732940429448	-0.5835012946337876	0.0	0.8079367704674678	-0.6800180037567665	0.0	0.8333014708716654	-0.7491769304653617	0.0	0.8294231352321082	-0.7802921109679118	0.0	0.845589279898401	-0.7742266435486024	0.0	0.8331512596207931	-0.7554605668316622	0.0	0.7511592542626032	-0.4270584166620608	0.0	0.7433677856047264	-0.35686315353135056	0.0	0.7479014265874696	-0.39572814432620207	0.0	0.7101238593171904	-0.45199166173138616	0.0	0.6839490400678961	-0.5188398993543467	0.0	0.6420680766672175	-0.576859662677821	0.0	0.7965853983952514	-0.44511146599934803	0.0	0.8179396164332268	-0.5131577344282032	0.0	0.8337503488109166	-0.5619702042906676	0.0
100	3.354430379746835	0.7599695712143258	-0.5977982413632972	0.0	0.7331051571095408	-0.6010919897440817	0.0	0.752029200421937	-0.7105264904916982	0.0	0.7517685820955251	-0.8176464576639336	0.0	0.7553472109100748	-0.8324042459254584	0.0	0.7390400938173515	-0.8340764490047116	0.0	0.7521378311058153	-0.8298529115788602	0.0	0.7878889523580943	-0.5992019598314817	0.0	0.810419376025398	-0.6944550038872792	0.0	0.8363740903182554	-0.7576497526621039	0.0	0.830111726596578	-0.7895744883057054	0.0	0.8472080444799732	-0.7835658387632733	0.0	0.8374143575855394	-0.7628485133293497	0.0	0.7520512346252962	-0.44235947238692774	0.0	0.7444640529836352	-0.37250523387936685	0.0	0.7482966513114268	-0.41087703132864484	0.0	0.7112001537412393	-0.4675726938862945	0.0	0.683751087023162	-0.5344918809392102	0.0	0.639828525233838	-0.591883041713938	0.0	0.7974725069510586	-0.46052351868964125	0.0	0.8184291464732508	-0.5292088475224572	0.0	0.8310706843125203	-0.577649613697048	0.0
101	3.3879746835443036	0.7607227536071609	-0.6099438424400445	0.0	0.7341684497748364	-0.613938270541304	0.0	0.7531639283134557	-0.7223468091399097	0.0	0.7514184256370229	-0.8275751048708785	0.0	0.7518710563146476	-0.8413610674201927	0.0	0.7366273253779146	-0.8428195831153129	0.0	0.7526476473885316	-0.8392418738606833	0.0	0.7890236610255478	-0.6122308584977285	0.0	0.8125458455989389	-0.706986294795067	0.0	0.8381628177766949	-0.7633619191704276	0.0	0.8300791970856938	-0.7969382987383442	0.0	0.8476720609837575	-0.7908465310924729	0.0	0.8402055672521483	-0.7673481685009367	0.0	0.7529281073489961	-0.4550018399296547	0.0	0.7455742441328573	-0.38578976759543937	0.0	0.7486528590758744	-0.4233773089417636	0.0	0.7122184316960422	-0.4806695647461346	0.0	0.6844876578396089	-0.5480845980419785	0.0	0.6401515170791926	-0.6054741156279133	0.0	0.7982909038086459	-0.4733915476450474	0.0	0.8182226183511384	-0.5431113323488458	0.0	0.8277652719690112	-0.5917011514320414	0.0
102	3.421518987341772	0.7617953879665804	-0.6183066506174879	0.0	0.7356266504321931	-0.6229099200570146	0.0	0.7539222521502511	-0.7306216586510701	0.0	0.7508350979673344	-0.8343580228924792	0.0	0.7493583056902865	-0.8475588297553444	0.0	0.7351893464424131	-0.8490328408497881	0.0	0.752830376982439	-0.8454453859623923	0.0	0.79028476263702	-0.6212696884425654	0.0	0.8144558885816195	-0.7163188660591738	0.0	0.8391957273806515	-0.7655727665189973	0.0	0.8299379185575019	-0.801482018976397	0.0	0.8475958150332504	-0.7952017077963419	0.0	0.841964654173133	-0.7682166705699222	0.0	0.7538165886773093	-0.46364133336231583	0.0	0.7466757808406772	-0.3952177699312918	0.0	0.7490856254386248	-0.431954943922101	0.0	0.7132574866257169	-0.4899148489055296	0.0	0.6863690042698761	-0.5582045670061383	0.0	0.6431361774422645	-0.6163542720968729	0.0	0.7991311050411842	-0.482268831736501	0.0	0.8176001977836719	-0.5532845191812957	0.0	0.8243544795117839	-0.6026996153396857	0.0
103	3.4550632911392403	0.7633306373801427	-0.6220774184745701	0.0	0.7375195391904629	-0.6271293038182485	0.0	0.7543854854012458	-0.7346052093009799	0.0	0.7502464512162245	-0.8374627101084553	0.0	0.7484309900468794	-0.8503278779091477	0.0	0.7350986331046144	-0.8519913475231973	0.0	0.7527727425701437	-0.8479660405448156	0.0	0.7918068296057152	-0.6254316075701168	0.0	0.8163045121619316	-0.7214859298427532	0.0	0.8398197192901007	-0.7643737751041456	0.0	0.8300674230985556	-0.8027798789495936	0.0	0.8474443703947068	-0.7963199804229987	0.0	0.8429741347285012	-0.7657452025555357	0.0	0.7547532016840552	-0.46737112189725927	0.0	0.7477594453534147	-0.3997185678609762	0.0	0.7497301503107863	-0.4357442110284143	0.0	0.7143988448994918	-0.4943403905189285	0.0	0.6894571173320905	-0.563804317328369	0.0	0.6487008798469827	-0.6234362711539173	0.0	0.8000856587536826	-0.48615076396149626	0.0	0.8169694882547145	-0.5586078951932901	0.0	0.8215251241228936	-0.6096267512574004	0.0
104	3.488607594936709	0.7654188136259871	-0.6209052705140577	0.0	0.7398285435418609	-0.626232119429108	0.0	0.7547271066346941	-0.7340058460376457	0.0	0.7498925351185648	-0.8366741940030589	0.0	0.7494089692153819	-0.8493774418216603	0.0	0.7364741891659864	-0.8512703549815324	0.0	0.7525878212524703	-0.8467579230264957	0.0	0.7936795264989726	-0.6243464693071263	0.0	0.8182186989805882	-0.7220342340210187	0.0	0.8401134524128379	-0.7606949983144267	0.0	0.8306794297127917	-0.8010276251500211	0.0	0.8475336687530058	-0.7944671054776159	0.0	0.8432709648064864	-0.7612005135392488	0.0	0.7558051510322985	-0.4658460459525665	0.0	0.7488419020497395	-0.3988209563286961	0.0	0.7507291324954118	-0.43440342987136593	0.0	0.7156747818611144	-0.4935115889607405	0.0	0.6936469609185586	-0.564357151613848	0.0	0.6566000238845823	-0.625986213312837	0.0	0.8012600715193515	-0.4846485730391494	0.0	0.8166966261611972	-0.5586033863744414	0.0	0.819964973753799	-0.6120325209876968	0.0
105	3.522151898734177	0.768065748109582	-0.6149490661033779	0.0	0.7424872140937007	-0.6203840966930221	0.0	0.7551866820462586	-0.7289925481920324	0.0	0.7499500828934829	-0.832111265756668	0.0	0.7521209198380466	-0.8449618231444439	0.0	0.7391030418455485	-0.8469558284495332	0.0	0.7523922934654876	-0.8421077742023987	0.0	0.7959274353435495	-0.6181580290511042	0.0	0.8202656464178748	-0.7180276668439185	0.0	0.840017779049008	-0.7560450268223388	0.0	0.8318744091291412	-0.7970415255364806	0.0	0.8480261433429868	-0.7904822621571026	0.0	0.842735119411323	-0.7564451057654082	0.0	0.7570784735687537	-0.45934233818259484	0.0	0.7500166841870063	-0.39270741970234274	0.0	0.7522121382397602	-0.42814871142362987	0.0	0.717093002875122	-0.4875969630546114	0.0	0.6986944007351383	-0.5599325424642223	0.0	0.6664284378529555	-0.6237636075769994	0.0	0.8027596734461888	-0.47803205194619974	0.0	0.8170219701953512	-0.5534659789553825	0.0	0.8201987293196243	-0.6100074776357176	0.0
106	3.5556962025316454	0.7711952937780047	-0.6048958978148712	0.0	0.7454166590213774	-0.6102588027097449	0.0	0.7560248141039642	-0.7201638220429205	0.0	0.7504709644853718	-0.8242637456925367	0.0	0.7560067455539166	-0.8378586008572358	0.0	0.7425210536185799	-0.8397325009612805	0.0	0.7522713196823287	-0.8344770076772325	0.0	0.7985319025001804	-0.6075315977897795	0.0	0.8224785444887224	-0.7099904190602381	0.0	0.8395276867031461	-0.7519716248917017	0.0	0.8336690419703184	-0.7920588133628919	0.0	0.8489424599153012	-0.785615202305846	0.0	0.8412801603037979	-0.7532368223585145	0.0	0.7587120003798972	-0.448697025963561	0.0	0.7514586825826676	-0.3821626717312285	0.0	0.7543118261086353	-0.41770446702606817	0.0	0.7186763787061301	-0.4773255968163903	0.0	0.704274078388034	-0.5511598112481778	0.0	0.6776262761966351	-0.6170831158623654	0.0	0.8046686039584598	-0.46716136468727787	0.0	0.8180710681767359	-0.5439631196952618	0.0	0.8224931138027752	-0.6040136020794487	0.0
107	3.589240506329114	0.774672927955449	-0.5919189397545553	0.0	0.748559217165437	-0.5970225416092241	0.0	0.7574461439303272	-0.7085306833074396	0.0	0.7514134205266936	-0.8139807531123721	0.0	0.760395252769448	-0.8290695427024967	0.0	0.7462112548931616	-0.8306722650577967	0.0	0.7522827178697346	-0.8245353064229759	0.0	0.8014659450785677	-0.5936762039091744	0.0	0.8248704718495593	-0.6989369983510705	0.0	0.8387607377034612	-0.74944711285317	0.0	0.8359972124116007	-0.787327692391992	0.0	0.8502419653027181	-0.7810991569146397	0.0	0.839027275281154	-0.752482513056188	0.0	0.7608477272436308	-0.4351150930058382	0.0	0.7533351169078404	-0.3683952521248165	0.0	0.7571206680549472	-0.40418493176800674	0.0	0.7204814732013326	-0.46383621439155404	0.0	0.7100313492306353	-0.5390792598074112	0.0	0.6895384594880458	-0.6067598572422064	0.0	0.8070418125097811	-0.45332608119079487	0.0	0.8199011305432513	-0.5312603873330435	0.0	0.8268402428886416	-0.5947282271428685	0.0
108	3.622784810126582	0.7783532708752477	-0.5775078726622037	0.0	0.751894706482579	-0.5822049294314303	0.0	0.7595103470624117	-0.6954467299679955	0.0	0.7527224708471878	-0.8023550120529541	0.0	0.7646482315595126	-0.8195110968607145	0.0	0.74970162457899	-0.8208207027101607	0.0	0.7524916479416004	-0.8132223385247266	0.0	0.8047224411028789	-0.5782351765516404	0.0	0.827360732072171	-0.6863052024919764	0.0	0.8379426150383193	-0.7486835245169893	0.0	0.8386953576093858	-0.7836806041655514	0.0	0.8518862187374905	-0.777733909067099	0.0	0.8363835317668572	-0.7540735065861839	0.0	0.763566382247786	-0.41996785853721774	0.0	0.7557429883427208	-0.35280068025529765	0.0	0.76058510085319	-0.38893841076866575	0.0	0.722611240989197	-0.4484904525342881	0.0	0.7156206810316172	-0.5249441350702038	0.0	0.7015375478440999	-0.5939302352656742	0.0	0.8098876693309471	-0.438015437030608	0.0	0.8225401634267834	-0.5167232677423105	0.0	0.8329996427129112	-0.5829974540089221	0.0
109	3.6563291139240506	0.7821121577764418	-0.5632053543507421	0.0	0.7554224606152393	-0.5673999094952856	0.0	0.7621088198260918	-0.6823709434607822	0.0	0.7543572185269244	-0.7905898187617091	0.0	0.7681980050575615	-0.8099924373611795	0.0	0.7525392195786319	-0.8110027028053041	0.0	0.7529908376894316	-0.8016658178760292	0.0	0.8083016352763487	-0.5629646010146959	0.0	0.8297321354847967	-0.6736249466219137	0.0	0.8374068918348674	-0.749466598752616	0.0	0.8414978992807264	-0.7814198589033555	0.0	0.8538501047443353	-0.7758367546452921	0.0	0.8339945955576036	-0.7573859006606556	0.0	0.766843525690851	-0.4046582671424598	0.0	0.7587303540071202	-0.33677116175564137	0.0	0.7645375849375845	-0.3733963479308924	0.0	0.7251834795578739	-0.4327232568907082	0.0	0.7207616979627796	-0.5101067398398448	0.0	0.7131191368158033	-0.5798502925983728	0.0	0.8131546226091294	-0.4226963936767109	0.0	0.8259839958653381	-0.5017181078327567	0.0	0.8405635781521812	-0.5698411470117961	0.0
